<svg viewBox="0 0 200 200" xmlns="http://www.w3.org/2000/svg"><ellipse cx="100" cy="170" rx="52" ry="9" fill="#0f172a" opacity=".07"/>
<g transform="translate(-10,0)">
<rect x="86" y="34" width="18" height="12" rx="4" fill="#94a3b8"/>
<path d="M88 46 Q80 58 80 72 L80 154 Q80 164 90 164 L100 164 Q110 164 110 154 L110 72 Q110 58 102 46 Z" fill="#bfe3d0"/>
<path d="M84 74 L84 152 Q84 160 90 160 L95 160 L95 62 Q86 66 84 74 Z" fill="#e2f4e9" opacity=".85"/>
<rect x="82" y="92" width="26" height="34" rx="4" fill="#f8fafc"/>
<rect x="86" y="100" width="18" height="3" rx="1.5" fill="#64748b"/>
<rect x="89" y="107" width="12" height="2.5" rx="1.25" fill="#94a3b8"/>
</g>
<g transform="translate(126,124)">
<circle r="26" fill="#f0b429"/>
<circle r="21" fill="#fdf3d0"/>
<g fill="#f6c94a"><path d="M0 -18 L5 -2 L-5 -2 Z"/><path d="M0 18 L5 2 L-5 2 Z" /><path d="M-18 0 L-2 -5 L-2 5 Z"/><path d="M18 0 L2 -5 L2 5 Z"/><path d="M-13 -13 L-1 -6 L-6 -1 Z"/><path d="M13 13 L1 6 L6 1 Z"/><path d="M13 -13 L6 -1 L1 -6 Z"/><path d="M-13 13 L-6 1 L-1 6 Z"/></g>
</g>
</svg>