<svg viewBox="0 0 200 200" xmlns="http://www.w3.org/2000/svg"><ellipse cx="100" cy="170" rx="52" ry="9" fill="#0f172a" opacity=".07"/>
<path d="M60 58 L64 162 Q64 168 72 168 L128 168 Q136 168 136 162 L140 58 Z" fill="#eef2f7"/>
<path d="M63 96 L65.5 160 Q65.7 164 72 164 L128 164 Q134.3 164 134.5 160 L137 96 Z" fill="#e8a33d"/>
<path d="M63 96 L65.5 160 Q65.7 164 72 164 L92 164 L90 96 Z" fill="#c97f1d" opacity=".45"/>
<rect x="78" y="102" width="26" height="26" rx="6" fill="#f8fafc" opacity=".92" transform="rotate(-8 91 115)"/>
<rect x="102" y="118" width="24" height="24" rx="6" fill="#f1f5f9" opacity=".88" transform="rotate(12 114 130)"/>
<path d="M67 62 L70 150" stroke="#ffffff" stroke-width="7" stroke-linecap="round" opacity=".5"/>
<path d="M60 58 L140 58 L139.5 66 L60.5 66 Z" fill="#dbe4ee" opacity=".6"/>
</svg>